<svg width="256" height="275" viewBox="0 0 256 275" fill="none" xmlns="http://www.w3.org/2000/svg">
<path d="M252.154 194.867C250.923 191.411 249.484 188.067 248.115 184.969C246.008 180.203 243.801 175.428 241.666 170.812L241.497 170.446C222.457 129.216 202.022 87.4195 180.759 46.2235L179.856 44.4735C177.687 40.2675 175.445 35.9175 173.144 31.6435C170.415 26.2336 167.104 21.1375 163.269 16.4455C158.95 11.2942 153.554 7.15265 147.461 4.31252C141.364 1.47111 134.72 -0.000863413 127.993 3.79951e-07C121.267 0.000864173 114.622 1.47455 108.526 4.31752C102.434 7.15919 97.0396 11.3022 92.7222 16.4545C88.8921 21.1475 85.5828 26.2423 82.8522 31.6495C80.5322 35.9625 78.2682 40.3525 76.0792 44.5985L75.2412 46.2235C53.9772 87.4235 33.5422 129.218 14.5032 170.445L14.2252 171.045C12.1272 175.585 9.95821 180.281 7.88621 184.967C6.51621 188.063 5.08021 191.404 3.84721 194.869C0.316831 204.307 -0.808338 214.475 0.573211 224.457C2.03968 234.546 6.1197 244.077 12.4082 252.103C18.7023 260.134 26.9845 266.383 36.4352 270.232C43.5773 273.121 51.2119 274.598 58.9162 274.581C61.3362 274.581 63.7552 274.439 66.1592 274.159C75.9024 272.917 85.3005 269.747 93.8042 264.832C104.956 258.567 115.969 249.386 128 236.266C140.031 249.386 151.044 258.567 162.196 264.832C170.7 269.747 180.098 272.918 189.841 274.159C192.246 274.439 194.664 274.58 197.085 274.581C204.789 274.598 212.423 273.121 219.565 270.232C229.016 266.383 237.298 260.133 243.592 252.102C249.881 244.076 253.961 234.546 255.428 224.457C256.808 214.474 255.683 204.306 252.154 194.867V194.867ZM128 209.17C113.107 190.292 103.55 172.761 100.196 158.064C98.8224 152.557 98.498 146.84 99.2402 141.214C99.8267 137.088 101.342 133.149 103.672 129.694C106.542 125.974 110.227 122.962 114.444 120.892C118.664 118.82 123.302 117.743 128.002 117.744C132.703 117.744 137.341 118.821 141.56 120.894C145.777 122.965 149.461 125.976 152.33 129.697C154.66 133.152 156.176 137.092 156.762 141.219C157.503 146.848 157.178 152.566 155.802 158.075C152.444 172.77 142.89 190.296 128 209.17ZM238.032 221.972C237.007 229.026 234.154 235.69 229.757 241.302C225.356 246.918 219.565 251.288 212.957 253.979C206.272 256.657 199.019 257.605 191.869 256.737C184.439 255.78 177.278 253.334 170.814 249.546C160.888 243.969 150.84 235.408 139.534 222.85C157.533 200.655 168.773 180.198 172.934 161.977C174.807 154.315 175.213 146.368 174.131 138.556C173.149 131.824 170.65 125.404 166.824 119.78C162.339 113.708 156.49 108.773 149.749 105.375C143.004 101.974 135.556 100.202 128.002 100.202C120.448 100.202 113 101.973 106.254 105.373C99.5133 108.77 93.6646 113.704 89.1792 119.776C85.3533 125.398 82.8545 131.817 81.8712 138.547C80.7885 146.356 81.1923 154.299 83.0612 161.959C87.2212 180.188 98.4612 200.649 116.467 222.851C105.16 235.408 95.1122 243.969 85.1862 249.547C78.7228 253.335 71.5617 255.78 64.1312 256.737C56.9815 257.605 49.7281 256.657 43.0422 253.979C36.4341 251.288 30.6431 246.918 26.2422 241.302C21.846 235.69 18.994 229.026 17.9692 221.972C16.9841 214.802 17.8223 207.5 20.4062 200.741C21.3892 197.98 22.5382 195.27 23.9622 192.051C25.9772 187.496 28.1152 182.866 30.1832 178.39L30.4612 177.788C49.3942 136.792 69.7162 95.2295 90.8642 54.2545L91.7062 52.6235C93.8592 48.4455 96.0862 44.1265 98.3322 39.9535C100.481 35.6514 103.082 31.5902 106.09 27.8385C108.758 24.6166 112.104 22.0235 115.89 20.2445C121.599 17.5612 128.038 16.8506 134.195 18.2245C140.352 19.5983 145.878 22.9787 149.905 27.8345C152.916 31.5834 155.518 35.6435 157.665 39.9455C159.89 44.0815 162.097 48.3615 164.232 52.5005L165.136 54.2565C186.283 95.2265 206.605 136.788 225.54 177.792L225.71 178.161C227.814 182.713 229.99 187.418 232.038 192.052C233.464 195.276 234.615 197.988 235.595 200.739C238.178 207.499 239.016 214.802 238.032 221.972V221.972Z" fill="#FF385C"/>
</svg>
